# xmcd CD database file
#
# Track frame offsets:
#	150
#	12660
#	23272
#	33055
#	46730
#	58195
#	70147
#	82922
#	92910
#	109117
#
# Disc length: 1752 seconds
#
# Revision: 0
# Processed by: cddbd v1.5.2PL0 Copyright (c) Steve Scherf et al.
# Submitted via: CDex 1.51
#
DISCID=6f06d60a
DTITLE=Various Artist - All American Country - Road Trip -  1
DYEAR=2006
DGENRE=Country
TTITLE0=I've Been Everywhere - Hank Snow
TTITLE1=Just A Song Of Old Kentucky - The Monroe Brothers
TTITLE2=Cincinatti, Ohio - Connie Smith
TTITLE3=Saginaw, Michigan - Lefty Frizell
TTITLE4=The Battle Of New Orleans - Johny Horton
TTITLE5=Wichita Lineman - Eddy Arnold
TTITLE6=Detroit City - Bobby Bare
TTITLE7=Abilene - George Hamilton IV
TTITLE8=Paradise - The Everly Brothers
TTITLE9=L.A. Freeway - Guy Clark
EXTD=YEAR: 2006
EXTT0=
EXTT1=
EXTT2=
EXTT3=
EXTT4=
EXTT5=
EXTT6=
EXTT7=
EXTT8=
EXTT9=
PLAYORDER=
